<svg width="281" height="100" viewBox="0 0 281 100" xmlns="http://www.w3.org/2000/svg"><title>6FAF87DA-1D9D-4D51-B0AF-45CF56D91BFF</title><g fill="none" fill-rule="evenodd"><path fill="none" d="M0 0h280v100H0z"/><path d="M203.88 65.922h8.948V64.41h-6.705v-2.289h6.187v-1.454h-6.187v-2.234h6.705v-1.482h-8.947v8.97zm-10.966 0h2.243v-3.288h6.18v-1.481h-6.18v-2.666h6.677v-1.535h-8.92v8.97zm11.528-16.645c.35-.406.454-.837.294-1.078-.213-.378-.827 0-1.549.215-.88.242-1.494.403-2.188.324-.804-.082-1.31-.272-1.39-.189-.293.404-.347.97-.241 1.454.16.62.427.86 1.255 1.21.615.272 1.175.11 2.245-.565.48-.295 1.228-.968 1.574-1.371zm-17.547 16.645h2.243v-8.97h-2.243v8.97zM156.42 38.878c-.158 2.156-.213 7.086-.102 8.459.13 1.616-.349 1.725-1.258 1.67-1.016-.081-2.885-.162-5.446-.162h-.35c-2.243.026-4.486.108-5.554.161-1.444.056-1.682-.242-1.602-1.265.133-1.994.372-7.515.24-9.076-.052-1.077.533-1.212 2.378-1.428.508-.055 2.428-.108 4.539-.108 1.47-.027 2.99-.027 4.219.026 2.485.082 3.046.216 2.936 1.723zm2.726 11.718c.187-.863-.187-2.694-.267-5.145-.08-2.586.08-5.792.215-6.598.293-1.616.773-2.156.052-3.368-.693-1.184-1.522-1.103-2.884-.673-.774.244-4.033.295-6.997.295-2.216 0-4.246-.05-4.94-.05-1.176 0-2.697-.218-3.687-.325-.561-.054-1.123-.054-1.388.51-.187.406-.295 1.294 0 1.94.507.998.614 3.77.346 7.918-.24 4.177-.907 4.823-.641 5.63.188.782 1.63 1.429 2.297 1.294.667-.108 1.415-.621 3.498-.781a69.735 69.735 0 0 1 4.515-.135c1.255 0 2.537 0 3.766.052 1.255.053 1.869.216 2.67.352.719.161.963.538 1.31.538.373 0 1.788-.082 2.135-1.454zm28.845-6.438c-.213-.89-.374-.43-1.069-.053-2.402 1.185-6.141.404-8.573-.755-1.709-.862-2.963-1.965-2.963-2.451.053-.7.695-1.13.774-2.046.053-.592-.609-1.786-1.253-2.261-1.016-.753-1.905-.495-2.207-.341-.475.245-.587.326-.261 1.293.236.699.3 1.9-.98 3.625-.59.835-1.522 1.779-2.43 2.315-.935.566-1.79.863-2.325.81-1.014-.136-1.307-.646-1.52-.566-.215.052-.668.51-1.043 1.237-.374.7-.186 2.047.667 2.856.882.78 1.71.754 2.885.351 1.47-.54 3.284-2.29 4.248-3.017 1.308-1.05 1.574-1.59 3.445-.268.348.243 1.173.807 2.163 1.533a60.075 60.075 0 0 1 3.15 2.506c.935.807 1.47 1.132 2.352 1.184 1.255.08 1.896-.377 2.724-1.104.399-.35 1.202-1.21 1.548-1.94.64-1.291.802-2.316.668-2.908zM113.26 61.503c0 3.017 2.938 4.633 5.876 4.633 1.23 0 2.856-.16 3.978-.7v-1.912h-.187c-1.468 1.264-4.353 1.428-5.955.35-1.71-1.132-1.71-3.744-.078-4.822 1.68-1.158 4.457-1.104 6.007.243h.213v-1.94c-1.094-.432-2.669-.671-3.844-.671-3.15 0-6.01 1.641-6.01 4.819zm47.863.835l1.843-3.312 1.842 3.312h-3.685zm.854-5.386l-5.1 8.97h2.244l1.147-2.076h5.395l1.12 2.076h2.298l-5.1-8.97h-2.004zm16.828 0h-2.192v8.97h7.96v-1.563h-5.768v-7.407zm36.054-15.918c-.294-.083-.696.242-1.602.403-.882.136-2.483.19-4.622.19-2.135.054-5.074.026-5.367-.08-.186-.11-.213-.244-.186-.378.025-.27.24-.512.505-.539.428-.08 1.737-.135 3.58-.135 1.817.027 4.327.27 4.782-.053.453-.323.773-1.374.373-1.589-.322-.163-1.255-.027-2.19.053-.428 0-2.458.027-3.874 0h-1.895c-.454-.028-.667-.189-.615-.645a.671.671 0 0 1 .56-.487c.562-.053 4.327-.133 6.224 0 1.924.136 2.564.136 2.779-.592.213-.699.505-1.804-1.069-1.616-1.578.216-6.57.216-7.292.135-.4-.053-.48-.216-.532-.459-.055-.214 0-.537-.055-.78-.107-.457-.348-.565-.802-.62-.427-.053-1.041-.026-1.389.163-.32.187-.4.458-.453.673-.214.619.053 1.077-2.51 1.077-.963.027-2.191-.028-2.538-.028-.668.028-1.281.378-1.363 1.079-.132.699-.24 1.159.99 1.104.826-.054 1.094-.136 1.602-.136.64-.025 1.495-.025 2.084 0 .801.03.933.216.907.487-.053.35-.053.617-.774.617-1.178.028-3.659-.025-4.114.19-.453.217-1.042 1.78-.24 1.831.454.052 2.911-.242 4.06-.134.453.026.56.107.507.322-.027.162-.135.432-.373.516-.428.16-2.86.293-3.954.319-1.096.055-1.921 0-2.27 1.376-.346 1.4.482 1.156 2.564.752 2.057-.402 3.02-.378 2.751.244-.133.268-.882 1.184-1.895 1.831-1.176.755-2.378.915-3.1.78-.374-.08-.72-.16-.934-.377-.134-.135-.242-.188-.32-.188-.454 0-.588.782-.454 1.536.213.914 1.282 1.751 2.323 1.804 1.043.053 2.324-.538 2.991-1.024.83-.54 1.709-1.212 2.723-2.451.509-.618.989-1.318 1.337-1.75.453-.51.8-.647 1.042-.727.614-.189 2.75-.216 4.113-.189.347.133.454.458.427.755-.053.915-1.39.86-2.51.836-.856-.056-1.764-.082-2.59.052-.563.08-.91.108-1.016.727-.134.647-.48 1.696.774 1.454.988-.216 2.858-.403 4.035-.35.64 0 1.013-.028 1.12.782.107.619-.053 1.696-.214 2.046-.266.592-.853 1.077-1.708 1.184-.589.083-.722.298-.322.89.535.755 1.816 1.185 3.34.863.8-.19 1.6-.998 1.788-1.969.187-.942.053-1.803.08-2.663.054-.97.454-.916 1.148-.945.696-.026 1.255.189 1.87.136.908-.08 1.014-1.833.748-2.128-.267-.322-.88.106-1.469.106-.375.028-.908.028-1.388.028-.455 0-.882-.053-.99-.512-.08-.295-.051-.537 0-.673.082-.296.323-.323.508-.323h.135c.105.027.16.027.134.027a22.44 22.44 0 0 0 1.736.083c1.306 0 1.441-.273 2.11-1.16.665-.89.56-1.698.239-1.75zm-60.974 4.686c-.293-.055-.427-.188-.32-.672.266-1.186-1.39-.998-1.709-.81-.054.027-.108.056-.108.081.054.135 0 .378-.053.675-.106.321-.239.457-.402.51h-.052c-.025 0-.025 0-.025.028h-.108c-.054 0-.108-.028-.161-.028-.589-.08-.64-.51-.64-1.05 0-1.264.986-.995 1.922-1.023 1.229-.054 2.084.135 2.19-.809.054-.94 0-1.076-1.202-.97-.507.053-1.389.053-1.896.053-.67 0-1.147.03-1.122-.67.027-.458.24-.7.988-.782.963-.08 1.63-.08 2.566.055.932.107 1.2-.54 1.307-1.375.054-.43-.08-.915-.534-.834a4.402 4.402 0 0 1-.854.135c-.535.052-1.068.052-2.03.08h-6.784c-.533 0-.907-.08-1.121.564-.242.675 0 1.402.345 1.402.616-.027 1.255-.108 2.352-.081.854.027 1.335.054 1.416.649.08.51.08.755-.482.833-.693.135-2.003.082-2.67.053-.909-.029-.961.298-1.095.888-.08.459.026.997.775.997.88-.026 1.682-.135 2.588-.107.643.027.803.136.83.835.026.135 0 .268-.053.484-.161.727-.64.834-1.336.863-1.417.053-1.63.026-2.27.188-.453.082-.694.243-.855.809-.321 1.346.268 1.319 1.737 1.157.694-.08 2.43-.187 4.246-.187a17.752 17.752 0 0 1 1.735 0c1.523.025 2.405.16 2.806.215.667.052 1.07-.08 1.254-.458.266-.406.375-.944.266-1.429-.104-.726-.506-.377-1.441-.269zm-28.95-3.393v-1.024c.08-1.266.534-1.59 1.39-1.697.237-.025.559-.053.88-.053.478-.026.934 0 1.256.028.825.133 1.012.51 1.012 1.428 0 .537-.213 1.939-.56 2.289-.372.35-.908.403-1.708.374-.242 0-.509-.024-.802-.024-1.095-.109-1.416-.487-1.468-1.32zm-3.26.242c-.08.997-1.014 1.08-1.922 1.103-.133 0-.267.029-.428.056-.801.08-1.762.159-2.11-.35-.292-.378-.266-1.805-.185-2.452.105-.834.773-1.077 1.681-1.158.188-.026.401-.054.614-.054.347 0 .722-.026 1.043 0 .855.054 1.12.188 1.282 1.051.106.565.051 1.186.024 1.804zm5.53 3.798c.508.026 1.094.08 1.787.161 2.192.216 2.27.484 2.834-.054.587-.51.746-1.695.318-2.18-.426-.539-.452-.701-.373-1.268.026-.214.108-.376.24-.834.266-.889.722-1.912 1.096-2.236.373-.322.32-1.05.027-1.695-.24-.512-.508-.943-.749-1.213-.56-.647-1.201-.565-2.669-.351-.91.137-1.766.215-2.511.242-.428.029-.776.029-1.096.029-.935-.056-1.068-.271-1.122-.915-.027-.405 0-1.617-.027-2.048-.133-1.293-1.576-.97-2.43-.674-1.174.43-.856.916-.774 1.911v.836c-.055.54-.186.672-.856.781-.32.053-.88.08-1.575.109-1.495 0-3.498-.082-4.354-.485-.48-.216-.8-.378-1.2-.109-.373.216-.829 1.454-.482 1.94.642.863.748 1.32.854 3.044.135 2.208-.238 4.793-.88 5.817 0 0 .75 1.374 1.603 1.239.746-.108 1.174-.781 2.003-1.213.533-.27 1.467-.593 2.456-.727.4-.054.8-.054 1.201-.054 1.044 0 1.203.297 1.282 1.158.08 1.105.08 3.26.08 3.986.028.756.162 1.214.59 1.403.454.213 1.255.375 1.788.16.507-.215.507-.753.533-3.26.028-2.504.242-2.907.562-3.259.213-.215.801-.294 1.844-.24zm6.461 14.14h-5.716v-3.555h-2.161v8.97h2.161v-3.907h5.716v3.907h2.109v-8.97h-2.109v3.555zm19.471 2.693l-6.17-6.248h-1.922v8.97h2.057V59.78l6.141 6.142h1.952v-8.97h-2.058V63.2zM83.89 38.28c.857-4.71 4.95-8.28 9.87-8.28 5.54 0 10.033 4.53 10.033 10.119 0 4.838-3.367 8.883-7.867 9.882h7.852C103.778 61.045 94.87 70 83.89 70 72.904 70 64 61.045 64 50c0-11.048 8.904-20 19.89-20v8.28zm-.164 1.722c-5.418.088-9.78 4.53-9.78 9.999 0 5.523 4.45 9.998 9.944 9.998 5.416 0 9.815-4.348 9.94-9.762h-.07c-5.542 0-10.035-4.53-10.035-10.118v-.117zm55.524 25.92v-8.97h2.243v8.97h-2.243z" fill="#5A6978"/></g></svg>