<svg xmlns="http://www.w3.org/2000/svg" xmlns:xlink="http://www.w3.org/1999/xlink" width="40" height="40" viewBox="0 0 40 40">
    <defs>
        <filter id="a" width="132.5%" height="132.5%" x="-16.2%" y="-13.8%" filterUnits="objectBoundingBox">
            <feOffset dy="1" in="SourceAlpha" result="shadowOffsetOuter1"/>
            <feGaussianBlur in="shadowOffsetOuter1" result="shadowBlurOuter1" stdDeviation="2"/>
            <feColorMatrix in="shadowBlurOuter1" result="shadowMatrixOuter1" values="0 0 0 0 0.203921569 0 0 0 0 0.247058824 0 0 0 0 0.294117647 0 0 0 0.06 0"/>
            <feMerge>
                <feMergeNode in="shadowMatrixOuter1"/>
                <feMergeNode in="SourceGraphic"/>
            </feMerge>
        </filter>
        <path id="b" d="M13.247 13.815H1.302c-.694 0-1.257-.587-1.257-1.311v-9.18c0-.725.563-1.312 1.257-1.312h3.143V.7c0-.362.282-.655.629-.655h4.4c.348 0 .63.293.63.655v1.312h3.143c.694 0 1.257.587 1.257 1.311v9.18c0 .725-.563 1.312-1.257 1.312zM9.475.7H5.074v1.312h4.4V.7zm4.4 2.623a.643.643 0 0 0-.628-.655H1.302a.643.643 0 0 0-.629.655v3.28h5.344c0-.725.563-1.312 1.257-1.312.695 0 1.258.587 1.258 1.311h5.343V3.323zm-7.23 3.28v1.31c0 .363.282.656.63.656a.643.643 0 0 0 .628-.655V6.602a.643.643 0 0 0-.629-.656.643.643 0 0 0-.628.656zm7.23.655H8.532v.656c0 .724-.563 1.311-1.258 1.311-.694 0-1.257-.587-1.257-1.311v-.656H.673v5.246c0 .362.282.656.629.656h11.945a.643.643 0 0 0 .628-.656V7.258z"/>
    </defs>
    <g fill="none" fill-rule="evenodd" filter="url(#a)">
        <circle cx="20" cy="20" r="20" fill="#EF6666"/>
        <g fill-rule="nonzero" transform="translate(13.054 12.398)">
            <use fill="#FFF" fill-rule="evenodd" xlink:href="#b"/>
            <path stroke="#FFF" stroke-width=".2" d="M4.345 1.912V.7c0-.416.326-.755.729-.755h4.4c.404 0 .73.339.73.755v1.212h3.043c.75 0 1.357.633 1.357 1.411v9.18c0 .78-.607 1.412-1.357 1.412H1.302c-.75 0-1.357-.632-1.357-1.411v-9.18c0-.78.606-1.412 1.357-1.412h3.043zm5.03 0v.1l.1-.1h-.1zm-4.201 0h-.1l.1.1v-.1zm0-1.112V.7l-.1.1h.1zm4.2 0h.1l-.1-.1v.1zm0 0v1.112h-4.2V.8h4.2zm4.401 5.702v.1l.1-.1h-.1zm-5.147 0h-.096l.1.1c0-.033-.001-.067-.004-.1zm-2.708 0a1.488 1.488 0 0 0-.003.1l.1-.1H5.92zm-5.147 0h-.1l.1.1v-.1zm13.002 0H8.628c-.049-.732-.635-1.311-1.354-1.311-.718 0-1.304.58-1.354 1.311H.773V3.323c0-.307.238-.555.529-.555h11.945c.29 0 .528.248.528.555v3.18zm-7.03.1c0-.308.238-.556.53-.556.29 0 .528.248.528.556v1.312a.543.543 0 0 1-.529.555.543.543 0 0 1-.528-.555V6.602zm7.03.756H8.632v.556c0 .778-.607 1.411-1.358 1.411-.75 0-1.357-.633-1.357-1.411v-.556H.773v5.146c0 .308.238.556.529.556h11.945a.543.543 0 0 0 .528-.556V7.358z"/>
        </g>
    </g>
</svg>
