<svg width="281" height="100" viewBox="0 0 281 100" xmlns="http://www.w3.org/2000/svg" xmlns:xlink="http://www.w3.org/1999/xlink"><title>F736CB13-BB2E-469E-96C9-FFF96C62540B</title><defs><path id="a" d="M0 43.636h120.757V0H0z"/></defs><g fill="none" fill-rule="evenodd"><path fill="none" d="M0 0h280v100H0z"/><g transform="translate(79 28)"><path d="M54.779 30.42v6.166h1.116c.974 0 1.73-.274 2.285-.828.544-.553.823-1.331.823-2.33 0-.999-.288-1.753-.85-2.25-.564-.507-1.298-.759-2.215-.759h-1.16zm-.994 7.08v-8.005h2.195c1.166 0 2.129.36 2.905 1.07.764.702 1.156 1.648 1.156 2.837 0 1.238-.392 2.233-1.156 2.983-.776.74-1.77 1.115-2.986 1.115h-2.114z" fill="#5A697A"/><mask id="b" fill="#fff"><use xlink:href="#a"/></mask><path d="M61.393 37.5h.968v-5.713h-.968V37.5zm-.116-7.321a.63.63 0 0 1 .176-.455.595.595 0 0 1 .437-.184.618.618 0 0 1 .62.64c0 .177-.058.328-.177.447a.614.614 0 0 1-.443.177.59.59 0 0 1-.44-.177.623.623 0 0 1-.173-.448zM65.852 34.812c-.45.064-.759.178-.93.359-.17.17-.254.406-.254.718 0 .275.093.496.275.668.19.17.433.256.732.256.426 0 .774-.153 1.052-.462.268-.31.408-.699.408-1.17v-.549l-1.283.18zm-1.627-2.622c.541-.356 1.177-.535 1.887-.535 1.325 0 1.985.727 1.985 2.168V37.5h-.962v-.884h-.024c-.384.676-.944 1.022-1.682 1.022-.532 0-.959-.154-1.267-.452-.317-.297-.472-.702-.472-1.211 0-1.074.608-1.691 1.816-1.868l1.629-.236c0-.932-.372-1.395-1.111-1.395-.659 0-1.258.225-1.799.688v-.974zM74.336 37.5h-.964v-3.25c0-1.17-.411-1.759-1.232-1.759-.426 0-.777.167-1.055.496-.27.331-.404.75-.404 1.256V37.5h-.973v-5.713h.973v.947h.011c.42-.718 1.02-1.08 1.805-1.08.6 0 1.058.2 1.37.602.316.402.469.984.469 1.751V37.5zM78.9 32.79c-.165-.119-.386-.18-.668-.18-.38 0-.688.184-.935.553-.242.363-.371.845-.371 1.444V37.5h-.963v-5.713h.963v1.163h.024c.28-.841.759-1.26 1.437-1.26.222 0 .39.026.514.075v1.024zM80.315 34.676c0 .662.159 1.174.476 1.553.32.38.748.571 1.287.571.555 0 .977-.188 1.266-.553.295-.374.442-.903.442-1.598 0-.693-.147-1.228-.442-1.6-.29-.371-.711-.558-1.266-.558-.543 0-.973.195-1.29.583-.314.39-.473.924-.473 1.602m-.988.032c0-.942.25-1.686.754-2.232.506-.55 1.193-.821 2.06-.821.821 0 1.466.263 1.932.784.468.532.7 1.257.7 2.18 0 .904-.25 1.628-.747 2.187-.5.555-1.165.832-2.005.832-.824 0-1.478-.273-1.963-.81-.488-.535-.731-1.243-.731-2.12M90.778 37.5h-.968v-3.25c0-1.17-.408-1.759-1.23-1.759-.428 0-.782.167-1.054.496-.276.331-.412.75-.412 1.256V37.5h-.968v-5.713h.968v.947h.016c.413-.718 1.012-1.08 1.801-1.08.602 0 1.063.2 1.374.602.314.402.473.984.473 1.751V37.5zM96.184 34.103a1.597 1.597 0 0 0-.425-1.134 1.376 1.376 0 0 0-1.063-.478c-.529 0-.937.203-1.233.608-.295.407-.443.961-.443 1.664 0 .611.143 1.1.427 1.474.282.373.659.563 1.126.563.472 0 .864-.184 1.163-.54.3-.355.451-.811.448-1.362v-.795zm.969 2.916c0 2.113-.985 3.172-2.953 3.172-.681 0-1.273-.13-1.776-.395v-.98c.614.357 1.2.535 1.762.535 1.331 0 1.998-.733 1.998-2.193v-.601h-.02c-.418.722-1.038 1.081-1.865 1.081-.69 0-1.236-.256-1.65-.772-.412-.515-.618-1.192-.618-2.038 0-.977.224-1.748.682-2.318.455-.57 1.065-.855 1.823-.855.73 0 1.274.302 1.628.905h.02v-.773h.969v5.232zM98.608 36.969c0-.184.066-.34.187-.471a.6.6 0 0 1 .452-.192.6.6 0 0 1 .462.197.634.634 0 0 1 .182.466c0 .18-.057.331-.182.46a.61.61 0 0 1-.466.195.607.607 0 0 1-.455-.194.671.671 0 0 1-.18-.461M105.116 37.243c-.419.263-.926.395-1.515.395-.793 0-1.434-.267-1.913-.799-.482-.527-.725-1.218-.725-2.062 0-.93.26-1.691.78-2.263.52-.573 1.219-.859 2.088-.859.503 0 .932.091 1.292.28v1.004a2.094 2.094 0 0 0-1.292-.448c-.552 0-1.002.2-1.35.602-.352.403-.527.937-.527 1.604 0 .66.166 1.172.492 1.542.333.373.772.56 1.333.56.47 0 .918-.16 1.337-.487v.93zM107.043 34.676c0 .662.161 1.174.48 1.553.319.38.746.571 1.285.571.556 0 .977-.188 1.268-.553.294-.374.44-.903.44-1.598 0-.693-.146-1.228-.44-1.6-.291-.371-.712-.558-1.268-.558-.546 0-.976.195-1.29.583-.314.39-.475.924-.475 1.602m-.988.032c0-.942.251-1.686.756-2.232.504-.55 1.188-.821 2.054-.821.83 0 1.473.263 1.934.784.47.532.707 1.257.707 2.18 0 .904-.254 1.628-.75 2.187-.501.555-1.168.832-2.007.832-.822 0-1.471-.273-1.962-.81-.487-.535-.732-1.243-.732-2.12M120.757 37.5h-.966v-3.283c0-.613-.092-1.06-.282-1.326-.184-.264-.487-.4-.908-.4-.359 0-.665.175-.918.52-.254.352-.377.76-.377 1.236V37.5h-.973v-3.383c0-1.084-.403-1.626-1.206-1.626-.369 0-.675.167-.919.496-.245.331-.366.757-.366 1.264v3.25h-.969v-5.714h.969v.907h.023c.39-.695.954-1.04 1.705-1.04.368 0 .69.104.972.316.28.209.481.493.584.854.41-.784 1.016-1.17 1.828-1.17 1.204 0 1.803.775 1.803 2.324V37.5zM72.318 27.005c-.125-1.685-.527-3.369-1.205-5.054h1.578a18.272 18.272 0 0 1 1.483 5.054h-1.856zm-5.844 0a23.1 23.1 0 0 0-1.111-5.054h1.67a25.43 25.43 0 0 1 1.296 5.054h-1.855zm-5.844 0a24.677 24.677 0 0 0-.742-5.054h1.578a19.792 19.792 0 0 1 1.02 5.054H60.63zm-3.058-7.957h11.13c1.173 0 1.762-.592 1.762-1.778v-3.371H57.572v5.15zm-1.856 1.312v-7.771h6.77v-6.74h2.04v2.527h9.834v1.218h-9.834v2.995h7.792v4.586c.125 2.247-.897 3.31-3.06 3.185H55.716zm-1.95 6.645c.124-1.437.56-3.12 1.302-5.054h1.574a29.295 29.295 0 0 0-1.02 5.054h-1.855zM96.066 10.156h-1.855v7.863h.557c.928.062 1.36-.467 1.298-1.591v-6.272zm-5.288 7.863h1.855v-7.863h-1.855v7.863zm-1.484 1.31V8.844h3.34V5.943h1.577v2.901h3.34v7.77c.123 1.872-.744 2.777-2.599 2.715h-.74v5.618a15.537 15.537 0 0 0 2.224-.75 26.123 26.123 0 0 0-.834-3.088h1.39c.682 1.683 1.207 3.65 1.578 5.896h-1.577l-.278-1.777c-1.67.747-3.556 1.123-5.659 1.123H88.74v-1.217h3.894v-5.805h-3.339zm-9.18-5.897h4.078c.802 0 1.206-.404 1.206-1.218v-1.403h-5.285v2.621zm-.28 8.892v-1.308h1.111c0-.127-.062-.315-.184-.562a20.38 20.38 0 0 1-.373-1.968h1.391c0 .813.154 1.655.467 2.53h.927c.31-.875.462-1.717.462-2.53h1.394c-.064.936-.248 1.78-.557 2.53h1.203v1.308h-2.227v4.307h-1.481v-4.307h-2.133zm-1.486-7.768V9.688h8.719v2.526c.062 1.626-.742 2.404-2.41 2.342h-6.309zm-.833 12.729V16.147h10.48v8.612c.062 1.622-.805 2.402-2.597 2.34h-.836v-1.216h.559c.927.06 1.357-.345 1.297-1.217v-7.209h-7.327v9.828h-1.576zm-.28-19.189h10.946V6.88H77.235v1.217zM111.555 24.759v-1.78c.93-1.622 1.702-3.118 2.319-4.492-.925-1.934-1.73-4.774-2.41-8.518h1.485c.493 2.807 1.05 5.023 1.668 6.646a54.802 54.802 0 0 0 1.67-6.646h1.485c-.68 3.744-1.485 6.584-2.411 8.518.616 1.374 1.39 2.87 2.319 4.493v1.779c-.127-.249-.342-.561-.652-.936-1.173-1.686-1.979-2.964-2.41-3.838a55.642 55.642 0 0 1-3.063 4.774zm-.371 0c-1.483-1.997-2.502-3.589-3.06-4.774-.555 1-1.576 2.59-3.06 4.774v-1.78a52.84 52.84 0 0 0 2.319-4.492c-.928-1.934-1.763-4.774-2.504-8.518h1.576c.491 2.807 1.05 5.023 1.668 6.646.62-1.623 1.176-3.839 1.671-6.646h1.486c-.62 3.62-1.426 6.458-2.413 8.518.618 1.374 1.392 2.87 2.317 4.493v1.779zm-9.273 2.526V7.066h18.83v16.85c.062 2.248-.991 3.338-3.154 3.277h-1.576V25.79h1.205c1.172.06 1.73-.47 1.669-1.592V8.47h-15.026v18.815h-1.948zM38.048 37.924a3.82 3.82 0 0 1-1.384 5.201 3.769 3.769 0 0 1-5.166-1.393c-1.045-1.821-.424-4.15 1.384-5.2a3.766 3.766 0 0 1 5.166 1.392" fill="#5A697A" mask="url(#b)"/><path d="M31.435 34.008c2.87-1.67 6.45-.944 8.486 1.55l.008-.02a16.843 16.843 0 0 0-2.01-9.816c-3.646 5.88-10.13 9.793-17.523 9.793-6.196 0-11.75-2.75-15.535-7.098 2.743 8.243 10.47 14.188 19.581 14.188 1.4 0 2.765-.148 4.088-.417-1.134-3.022.032-6.512 2.905-8.18M31.498 1.904A3.77 3.77 0 0 1 36.665.511a3.82 3.82 0 0 1 1.383 5.2 3.766 3.766 0 0 1-5.165 1.395 3.82 3.82 0 0 1-1.385-5.202" fill="#5A697A" mask="url(#b)"/><path d="M31.435 9.629c-2.87-1.666-4.038-5.151-2.91-8.174l-.02.004a16.686 16.686 0 0 0-7.441 6.66 20.61 20.61 0 0 1 17.188 10.378c3.097 5.401 3.509 11.616 1.66 17.093 5.722-6.513 6.973-16.222 2.416-24.165a20.8 20.8 0 0 0-2.4-3.354c-2.035 2.5-5.62 3.226-8.493 1.558M3.783 25.625c-2.09 0-3.784-1.704-3.783-3.807-.001-2.102 1.693-3.808 3.783-3.808 2.089 0 3.782 1.706 3.782 3.808 0 2.103-1.693 3.808-3.782 3.807" fill="#5A697A" mask="url(#b)"/><path d="M10.46 21.818a6.707 6.707 0 0 1-5.578 6.625l.015.013a16.547 16.547 0 0 0 9.448 3.159c-3.235-6.121-3.36-13.727.337-20.174a20.602 20.602 0 0 1 13.875-9.993 20.607 20.607 0 0 0-22 9.978 21.048 21.048 0 0 0-1.686 3.768 6.704 6.704 0 0 1 5.59 6.624" fill="#5A697A" mask="url(#b)"/></g></g></svg>