<svg xmlns="http://www.w3.org/2000/svg" width="280" height="100" viewBox="0 0 280 100">
  <g fill="#5A6978" transform="translate(41 27)">
    <path d="M111.291385 18.9387669C111.333193 20.0257601 111.375 21.7816723 111.375 24.1646959 111.375 25.7115709 111.333193 26.3804899 111.249578 26.1714527 110.998733 26.0460304 110.580659 25.7115709 109.953547 25.1680743 110.204392 24.1228885 110.288007 22.8268581 110.246199 21.1963682 110.246199 19.6076858 110.120777 18.3116554 109.828125 17.308277 110.371622 17.4755068 110.873311 17.6845439 111.333193 17.9353885 112.461993 17.9353885 113.799831 17.7681588 115.346706 17.4755068L115.346706 14.5071791C115.346706 12.5840372 115.137669 11.2043919 114.761402 10.3264358 115.346706 10.535473 116.057432 10.6190878 116.977196 10.6190878 116.726351 11.4134291 116.559122 13.3365709 116.475507 16.4303209L116.475507 17.2664696C119.19299 16.7647804 120.65625 16.3885135 120.865287 16.1794764 121.450591 16.8902027 122.244932 17.3500845 123.290118 17.5591216 122.872044 18.0608108 122.663007 19.0641892 122.663007 20.5274493 122.663007 25.2516892 122.579392 27.5092905 122.45397 27.3838682 121.701436 27.2584459 120.65625 26.589527 119.318412 25.3771115 119.19299 25.2098818 119.109375 25.1262669 119.19299 25.0844595 119.234797 25.0008446 119.36022 24.9590372 119.569257 25.0008446 120.48902 25.2098818 120.948902 25.1262669 120.990709 24.75 121.074324 24.3319257 121.116132 22.1161318 121.116132 18.1444257 121.116132 17.7263514 120.948902 17.5591216 120.614443 17.6845439 120.070946 17.7263514 118.691301 17.9353885 116.391892 18.2280405 113.590794 18.6879223 111.918497 18.8969595 111.291385 18.9387669zM111.667652 13.5874155C112.796453 14.1727196 113.548986 14.6326014 113.799831 14.9670608 113.841639 15.176098 113.758024 15.6359797 113.507179 16.3467061 113.381757 16.6393581 113.214527 16.722973 113.089105 16.5975507 112.545608 15.8868243 112.002111 14.9252534 111.458615 13.7964527 111.416807 13.7128378 111.416807 13.629223 111.458615 13.5456081 111.500422 13.5456081 111.584037 13.5456081 111.667652 13.5874155zM117.604307 19.3568412C118.315034 19.9839527 119.02576 20.402027 119.694679 20.6110642 119.276605 20.9873311 118.816723 21.6980574 118.398649 22.7850507 118.691301 23.0358953 118.85853 23.2867399 118.983953 23.5793919 118.398649 23.6211993 117.687922 23.7048142 116.768159 23.8302365 115.806588 23.8720439 115.095861 23.9556588 114.63598 23.9974662 114.719595 24.4991554 114.719595 24.8336149 114.63598 24.9172297 114.343328 24.8754223 114.050676 24.6245777 113.716216 24.2065034 113.674409 22.3251689 113.423564 20.9455236 112.921875 20.0257601 113.17272 20.0675676 113.548986 20.1511824 114.134291 20.2766047 114.259713 20.3184122 114.385135 20.3602196 114.426943 20.3602196 115.973818 20.0675676 117.060811 19.7749155 117.604307 19.3568412zM117.5625 20.5692568C116.684544 20.7364865 115.639358 20.9037162 114.426943 21.1127534 114.46875 21.363598 114.510557 21.8234797 114.552365 22.4505912 114.594172 22.7432432 114.63598 22.9940878 114.63598 23.1613176 114.970439 23.1195101 115.430321 23.0358953 116.015625 22.910473 116.600929 22.8268581 117.060811 22.7432432 117.39527 22.6596284 117.478885 21.7398649 117.5625 21.0291385 117.5625 20.5692568zM117.39527 15.8450169L117.186233 15.5523649C118.649493 14.214527 119.569257 12.9603041 119.903716 11.8315034 120.279983 12.3331926 120.865287 12.8348818 121.617821 13.2947635 121.283361 13.4619932 120.739865 13.7964527 120.029139 14.2981419 118.983953 15.0088682 118.105997 15.5523649 117.39527 15.8450169zM129.561233 19.9421453C129.435811 20.3602196 129.352196 21.0291385 129.352196 21.9907095 129.352196 25.7533784 129.268581 27.4674831 129.143159 27.2166385 128.808699 27.0494088 128.348818 26.7149493 127.763514 26.1714527 127.888936 25.9206081 128.014358 25.5443412 128.056166 25.042652 128.265203 23.9138514 128.30701 22.4505912 128.181588 20.6528716 128.13978 20.8201014 128.014358 20.9873311 127.805321 21.1963682 127.763514 21.2799831 127.721706 21.363598 127.679899 21.4054054 127.094595 21.9070946 126.551098 22.1579392 125.965794 22.1579392 125.54772 22.1579392 125.171453 22.0743243 124.836993 21.948902 127.220017 20.2766047 128.808699 18.0608108 129.561233 15.2597128 129.895693 15.5523649 130.439189 15.8868243 131.191723 16.1794764 130.815456 16.6393581 130.397382 17.2246622 129.979307 18.0190034 129.644848 18.6461149 129.268581 19.2314189 128.850507 19.8585304 128.975929 19.816723 129.226774 19.8585304 129.561233 19.9421453zM131.651605 11.9569257C131.317145 12.2495777 130.940878 12.7094595 130.564611 13.2529561 129.979307 14.2981419 129.310389 15.2597128 128.557855 16.1376689 128.13978 16.5975507 127.638091 16.8065878 127.052787 16.8065878 126.67652 16.7647804 126.300253 16.6393581 125.923986 16.5139358 128.30701 15.0088682 129.728463 13.1275338 130.146537 10.9117399 130.564611 11.4552365 131.066301 11.7896959 131.651605 11.9569257zM131.358953 26.296875C130.815456 26.004223 130.439189 25.7951858 130.146537 25.6697635 129.895693 25.5025338 129.895693 25.3771115 130.062922 25.2098818 130.522804 24.5827703 131.024493 23.7466216 131.484375 22.7014358 131.526182 22.6178209 131.56799 22.5342061 131.609797 22.5342061 131.693412 22.5760135 131.73522 22.7014358 131.73522 22.8268581 131.777027 24.2483108 131.651605 25.3771115 131.358953 26.296875zM138.382601 13.0857264C138.424409 13.1275338 138.466216 13.1693412 138.508024 13.2529561 138.717061 13.4619932 138.800676 13.5874155 138.884291 13.629223 138.967905 13.7964527 138.967905 13.8800676 138.800676 13.921875 137.75549 14.0891047 136.710304 14.2563345 135.706926 14.5489865 135.623311 14.7998311 135.497889 15.176098 135.330659 15.5941723 135.247044 15.9286318 135.163429 16.2212838 135.121622 16.4303209 137.170186 16.0122466 138.424409 15.6777872 138.926098 15.3851351 139.511402 16.0122466 140.222128 16.3885135 141.141892 16.5139358 140.51478 16.8065878 140.013091 17.6009291 139.553209 18.855152 139.135135 19.8585304 138.842483 20.3602196 138.675253 20.3184122 138.591639 20.3184122 138.382601 20.0675676 138.048142 19.5658784 138.006334 19.4822635 137.964527 19.3986486 137.92272 19.3568412 136.584882 19.5658784 134.996199 19.816723 133.114865 20.109375 133.19848 20.402027 133.19848 20.6110642 133.114865 20.6528716 132.905828 20.6110642 132.613176 20.4438345 132.195101 20.109375 131.944257 18.6879223 131.56799 17.5591216 131.066301 16.7647804L131.651605 16.7647804C131.944257 16.8065878 132.195101 16.8483953 132.362331 16.8483953 132.738598 16.8483953 133.407517 16.7647804 134.285473 16.6393581 134.410895 16.0122466 134.578125 15.4269426 134.703547 14.7998311 134.578125 14.7998311 134.32728 14.8416385 134.076436 14.8834459 133.867399 14.9252534 133.658361 14.9670608 133.449324 14.9670608 133.19848 14.9670608 132.989443 14.8416385 132.738598 14.5907939 132.654983 14.4235642 132.571368 14.3399493 132.529561 14.2981419 132.738598 14.2981419 133.491132 14.1309122 134.912584 13.8382601 135.163429 12.3331926 135.163429 11.1625845 134.996199 10.3264358 135.581503 10.7445101 136.29223 10.9535473 137.211993 10.9953547 136.793919 11.4970439 136.417652 12.3331926 136.125 13.5038007 136.835726 13.2529561 137.462838 13.0857264 138.006334 13.0439189 138.089949 12.9603041 138.257179 13.0021115 138.382601 13.0857264zM138.089949 20.402027C138.298986 20.4856419 138.466216 20.6946791 138.591639 20.9455236 138.633446 20.9873311 138.675253 21.0709459 138.675253 21.1545608 138.633446 21.1963682 138.549831 21.2381757 138.466216 21.2381757 138.215372 21.2799831 137.839105 21.363598 137.337416 21.4472128 135.121622 21.8652872 133.867399 22.0743243 133.449324 22.0743243 133.19848 22.0325169 132.86402 21.7816723 132.445946 21.4054054 133.114865 21.3217905 134.410895 21.0709459 136.375845 20.6528716 136.961149 20.4856419 137.337416 20.402027 137.58826 20.3602196 137.797297 20.2766047 137.964527 20.2766047 138.089949 20.402027zM132.989443 19.4822635C133.114865 19.4822635 133.407517 19.4404561 133.783784 19.3150338 133.992821 19.2732264 134.118243 19.2314189 134.201858 19.2314189 133.951014 18.3116554 133.825591 17.6427365 133.825591 17.2664696 133.240287 17.4336993 132.780405 17.4755068 132.445946 17.4755068 132.696791 18.2280405 132.86402 18.855152 132.989443 19.4822635zM132.654983 23.495777C132.613176 23.2867399 132.613176 23.1613176 132.738598 23.0358953 132.86402 22.9522804 132.989443 22.9940878 133.114865 23.203125 133.992821 24.9590372 135.247044 25.8788007 136.919341 25.8788007 137.504645 25.8788007 137.92272 25.8369932 138.215372 25.7951858 138.340794 25.7533784 138.424409 25.6279561 138.340794 25.5025338 138.257179 25.2934966 138.131757 25.042652 138.048142 24.75 137.964527 24.5409628 137.880912 24.3737331 137.839105 24.2065034 137.797297 23.9974662 137.797297 23.8720439 137.839105 23.8302365 137.880912 23.7884291 138.006334 23.8302365 138.215372 23.9974662 138.926098 24.5409628 139.636824 25.1680743 140.305743 25.8788007 140.68201 26.2132601 140.68201 26.5059122 140.222128 26.7149493 138.842483 27.1748311 137.42103 27.2584459 135.999578 26.9239865 134.285473 26.589527 133.156672 25.4607264 132.654983 23.495777zM136.083193 16.8902027C135.706926 16.9738176 135.163429 17.0992399 134.452703 17.1828547L134.243666 17.1828547C134.536318 17.5173142 134.787162 17.9353885 135.038007 18.3952703 134.996199 18.6461149 134.912584 18.8969595 134.82897 19.1478041 134.912584 19.1478041 135.038007 19.1059966 135.205236 19.0641892 135.581503 18.9805743 135.832348 18.8969595 135.915963 18.8969595 135.999578 18.269848 136.083193 17.6009291 136.083193 16.8902027zM135.079814 22.2833615C135.790541 22.5342061 136.334037 22.7432432 136.710304 22.910473 136.793919 23.1613176 136.793919 23.5375845 136.710304 23.9556588 136.710304 24.1646959 136.668497 24.2483108 136.584882 24.2483108 136.501267 24.2901182 136.375845 24.2901182 136.29223 24.1646959 135.915963 23.9138514 135.414274 23.4121622 134.870777 22.6596284 134.787162 22.4923986 134.745355 22.4087838 134.787162 22.3669764 134.787162 22.3251689 134.870777 22.2833615 135.079814 22.2833615zM138.800676 16.4303209C138.549831 16.4721284 138.131757 16.5557432 137.504645 16.6393581 137.128378 16.6811655 136.835726 16.722973 136.626689 16.8065878 136.919341 16.8483953 137.211993 16.8902027 137.504645 16.8902027 137.295608 17.0992399 137.128378 17.3918919 137.002956 17.7263514 136.877534 17.9771959 136.710304 18.3534628 136.501267 18.7715372 136.793919 18.6879223 137.128378 18.6043074 137.58826 18.5625 137.671875 18.5206926 137.75549 18.4788851 137.797297 18.4788851 137.839105 18.4788851 138.006334 18.6043074 138.215372 18.855152 138.633446 17.6427365 138.884291 16.8902027 138.926098 16.5975507 138.967905 16.4303209 138.926098 16.3885135 138.800676 16.4303209zM138.967905 21.8234797C140.013091 22.0325169 140.84924 22.2415541 141.392736 22.4923986 141.643581 22.7014358 141.769003 23.1613176 141.810811 23.9556588 141.810811 24.1646959 141.769003 24.2901182 141.685389 24.3319257 141.643581 24.4155405 141.518159 24.4155405 141.309122 24.3319257 140.347551 23.7048142 139.511402 23.0358953 138.800676 22.1997466 138.717061 22.1161318 138.675253 22.0325169 138.675253 21.9907095 138.717061 21.8652872 138.800676 21.8234797 138.967905 21.8234797zM147.454814 10.2846284C148.123733 10.535473 148.750845 10.6608953 149.336149 10.6190878 149.043497 11.7896959 148.918074 13.1693412 148.918074 14.7998311L148.918074 15.176098C149.461571 15.0088682 149.96326 14.8834459 150.423142 14.7998311 150.548564 14.7580236 150.715794 14.7998311 150.924831 14.9670608 150.966639 15.0088682 151.092061 15.2179054 151.301098 15.5105574 151.342905 15.6777872 151.384713 15.761402 151.42652 15.8450169 151.092061 15.8868243 150.548564 16.0122466 149.837838 16.1794764 149.419764 16.2212838 149.085304 16.2630912 148.918074 16.3467061L148.918074 18.4788851C149.252534 18.6043074 149.670608 18.7297297 150.214105 18.9387669 150.423142 18.9805743 150.548564 19.0641892 150.632179 19.1059966 150.757601 19.3150338 150.841216 19.7749155 150.757601 20.5274493 150.757601 20.7364865 150.715794 20.8619088 150.673986 20.9037162 150.673986 20.9455236 150.632179 20.9455236 150.548564 20.8201014 149.96326 20.2766047 149.419764 19.7331081 148.918074 19.0641892L148.918074 21.2799831C148.918074 25.4607264 148.834459 27.5092905 148.625422 27.4256757 148.290963 27.3002534 147.831081 26.7985642 147.245777 25.8369932 147.580236 24.2901182 147.789274 21.948902 147.872889 18.8133446 147.20397 20.1511824 146.576858 21.1963682 145.991554 21.9907095 145.322635 22.9522804 144.444679 23.203125 143.357686 22.7850507 144.904561 21.7398649 146.409628 19.6913007 147.872889 16.6393581 146.785895 16.9738176 145.907939 17.2246622 145.280828 17.5173142 145.197213 17.3918919 144.988176 17.1828547 144.695524 16.8065878 144.570101 16.5557432 144.444679 16.3467061 144.319257 16.2630912 144.946368 16.2630912 146.116976 16.0122466 147.831081 15.46875L147.831081 15.3015203C147.872889 12.9603041 147.747466 11.2880068 147.454814 10.2846284zM151.844595 13.1275338C152.429899 13.3783784 152.88978 13.5874155 153.266047 13.7546453 154.812922 13.4201858 155.690878 13.0857264 155.98353 12.667652 156.443412 13.1275338 157.112331 13.5038007 157.990287 13.7128378 156.777872 15.176098 156.192568 17.8099662 156.192568 21.5308277 156.067145 23.0777027 156.610642 23.7466216 157.823057 23.5793919 159.202703 23.6211993 159.871622 23.3285473 159.829814 22.6178209 159.913429 21.8652872 159.997044 21.2799831 160.038851 20.8201014 160.038851 20.6528716 160.080659 20.5692568 160.164274 20.5692568 160.206081 20.5692568 160.247889 20.6528716 160.289696 20.8201014 160.70777 22.0743243 161.04223 23.2449324 161.209459 24.2901182 161.293074 24.5409628 161.209459 24.75 160.916807 24.8336149 160.206081 25.0008446 159.035473 25.0844595 157.404983 25.0844595 155.816301 25.1262669 155.063767 23.9138514 155.105574 21.4472128 155.147382 18.7715372 155.398226 16.2212838 155.899916 13.7964527 155.774493 13.8382601 155.398226 13.9636824 154.812922 14.1309122 154.060389 14.3817568 153.558699 14.5907939 153.307855 14.6744088 153.22424 18.3116554 153.015203 20.9037162 152.680743 22.4087838 152.137247 24.6663851 150.924831 25.7115709 148.959882 25.5861486 151.175676 24.2065034 152.220861 21.3217905 152.179054 16.8902027 152.346284 15.2179054 152.220861 14.0054899 151.844595 13.1275338zM166.978885 10.4100507C167.0625 10.4100507 167.187922 10.4518581 167.271537 10.4936655 167.898649 10.6608953 168.35853 10.7445101 168.69299 10.7445101 168.69299 10.8699324 168.651182 10.9953547 168.609375 11.2043919 168.400338 12.6258446 168.316723 13.8800676 168.316723 14.9670608L168.316723 16.0122466C168.567568 15.8868243 168.943834 15.8032095 169.529139 15.6777872L169.654561 15.6777872C169.863598 15.5523649 170.030828 15.5941723 170.15625 15.761402 170.15625 15.8032095 170.198057 15.8868243 170.281672 15.9286318 170.407095 16.2630912 170.532517 16.4721284 170.657939 16.5557432 170.32348 16.5975507 169.779983 16.722973 169.069257 16.8902027 168.734797 16.9320101 168.483953 17.015625 168.274916 17.0574324L168.274916 18.6461149C168.985642 18.9805743 169.612753 19.1896115 170.15625 19.3568412 170.281672 19.5240709 170.365287 19.9839527 170.281672 20.7782939 170.281672 20.9873311 170.239865 21.1127534 170.198057 21.1963682 170.198057 21.2381757 170.15625 21.2381757 170.072635 21.1127534 169.361909 20.4856419 168.776605 19.816723 168.274916 19.1896115L168.274916 21.2799831 168.274916 22.5760135C168.316723 25.9206081 168.233108 27.551098 168.065878 27.4256757 167.731419 27.3002534 167.313345 26.8403716 166.769848 26.004223 167.0625 24.7918074 167.22973 22.5342061 167.355152 19.3150338 166.435389 21.2381757 165.808277 22.4505912 165.43201 22.9940878 164.721284 23.9974662 163.843328 24.2901182 162.839949 23.7884291 164.177787 22.8686655 165.59924 20.7364865 167.146115 17.308277 165.933699 17.6845439 165.139358 17.9771959 164.721284 18.1862331 164.637669 18.1026182 164.470439 17.8517736 164.219595 17.5591216 163.96875 17.308277 163.80152 17.0992399 163.717905 17.015625 164.345017 16.9738176 165.43201 16.7647804 167.020693 16.3885135 167.146115 16.3467061 167.271537 16.3048986 167.396959 16.3048986L167.396959 15.46875C167.355152 12.7930743 167.22973 11.120777 166.978885 10.4100507zM172.915541 10.2846284C173.542652 10.7027027 174.127956 10.9535473 174.629645 10.9953547 174.295186 11.4552365 174.044341 12.0405405 173.835304 12.7512669 173.542652 13.5874155 173.25 14.4235642 172.957348 15.2179054 174.922297 15.0924831 176.260135 14.7162162 177.054476 14.0054899 177.63978 14.7162162 178.350507 15.0924831 179.186655 15.2179054 178.768581 16.1794764 178.475929 17.6009291 178.308699 19.5240709 178.266892 19.9421453 178.225084 20.5274493 178.183277 21.2799831 177.80701 25.5861486 177.556166 27.6347128 177.388936 27.4256757 176.385557 27.1748311 175.298564 26.5059122 174.086149 25.4189189 173.877111 25.2098818 173.835304 25.042652 173.877111 24.9590372 173.918919 24.8336149 174.086149 24.8336149 174.378801 24.8754223 174.964105 24.9172297 175.507601 24.9590372 176.092905 24.9590372 176.385557 24.9172297 176.51098 24.7081926 176.51098 24.3319257 176.761824 22.3669764 177.012669 19.6076858 177.305321 16.0958615 177.347128 15.6777872 177.221706 15.5105574 176.929054 15.6359797 175.674831 15.8032095 174.54603 16.0122466 173.542652 16.2630912 173.291807 16.0540541 173.040963 15.8032095 172.748311 15.46875 172.539274 16.0122466 172.330236 16.4721284 172.121199 16.8902027 171.494088 17.9771959 170.657939 18.3116554 169.612753 17.9353885 171.034206 16.722973 172.037584 14.8834459 172.622889 12.4168074 172.999155 11.4134291 173.08277 10.7027027 172.915541 10.2846284zM174.127956 19.8585304C174.71326 20.3184122 175.256757 20.8619088 175.842061 21.4472128 175.758446 21.8652872 175.591216 22.3251689 175.340372 22.7850507 175.256757 22.9522804 175.173142 23.0358953 175.131334 23.0358953 175.04772 23.0358953 174.964105 22.9522804 174.922297 22.7850507 174.922297 22.7432432 174.88049 22.6596284 174.796875 22.5342061 174.755068 22.3669764 174.629645 22.0743243 174.420608 21.5726351 173.375422 21.9907095 172.330236 22.4923986 171.285051 23.0777027 170.992399 22.5342061 170.741554 22.1997466 170.490709 22.0325169 171.703125 20.9037162 172.413851 19.3150338 172.622889 17.2246622 172.957348 17.6009291 173.459037 17.8935811 174.127956 18.1026182 174.002534 18.269848 173.709882 18.6461149 173.333615 19.3150338 172.622889 20.4856419 172.037584 21.3217905 171.61951 21.7816723L174.211571 21.0709459C174.169764 20.8619088 174.086149 20.5692568 173.918919 20.1929899 173.877111 20.0675676 173.835304 19.9839527 173.835304 19.9421453 173.793497 19.7749155 173.793497 19.6913007 173.835304 19.6076858 173.918919 19.6913007 174.002534 19.7331081 174.127956 19.8585304zM114.343328 39.3407939C113.716216 39.3407939 113.507179 39.1317568 112.880068 39.1317568 112.83826 38.7136824 112.796453 38.1701858 112.754645 37.7939189 112.754645 37.7521115 112.796453 37.7103041 112.880068 37.7103041 112.921875 37.7103041 112.963682 37.7103041 112.963682 37.7939189 113.256334 38.7972973 113.590794 39.0481419 114.343328 39.0481419 114.928632 39.0481419 115.179476 38.7136824 115.179476 38.1701858 115.179476 36.9995777 112.880068 36.9995777 112.880068 35.5363176 112.880068 34.7837838 113.507179 34.0730574 114.46875 34.0730574 114.970439 34.0730574 115.095861 34.1984797 115.597551 34.1984797 115.639358 34.7001689 115.681166 35.0764358 115.722973 35.5363176 115.722973 35.578125 115.681166 35.6199324 115.597551 35.6199324 115.513936 35.6199324 115.472128 35.6199324 115.472128 35.5363176 115.263091 34.6583615 114.928632 34.4075169 114.426943 34.4075169 113.925253 34.4075169 113.674409 34.7001689 113.674409 35.2018581 113.674409 36.1634291 115.973818 36.3724662 115.973818 37.7521115 116.015625 38.5882601 115.430321 39.3407939 114.343328 39.3407939zM122.328547 34.4493243C121.617821 34.5747466 121.576014 34.7419764 121.576014 35.2436655L121.576014 37.2086149C121.576014 38.379223 120.990709 39.2989865 119.736486 39.2989865 118.398649 39.2989865 117.646115 38.4210304 117.646115 37.3340372L117.646115 35.285473C117.646115 34.7837838 117.604307 34.6165541 116.893581 34.4911318 116.851774 34.4911318 116.851774 34.4075169 116.851774 34.3657095 116.851774 34.2820946 116.893581 34.2402872 116.893581 34.2402872 117.353463 34.2402872 117.520693 34.2820946 118.105997 34.2820946 118.649493 34.2820946 118.816723 34.2402872 119.318412 34.2402872 119.36022 34.2402872 119.36022 34.323902 119.36022 34.3657095 119.36022 34.4493243 119.318412 34.4911318 119.318412 34.4911318 118.607686 34.6165541 118.565878 34.7837838 118.565878 35.285473L118.565878 37.3340372C118.565878 38.5882601 119.151182 38.9227196 119.903716 38.9227196 120.65625 38.9227196 121.241554 38.4210304 121.241554 37.2504223L121.241554 35.285473C121.241554 34.7837838 121.157939 34.6165541 120.48902 34.4911318 120.447213 34.4911318 120.447213 34.4075169 120.447213 34.3657095 120.447213 34.2820946 120.48902 34.2402872 120.48902 34.2402872 120.82348 34.2402872 120.990709 34.2820946 121.408784 34.2820946 121.826858 34.2820946 121.95228 34.2402872 122.328547 34.2402872 122.370355 34.2402872 122.370355 34.323902 122.370355 34.3657095 122.370355 34.4075169 122.328547 34.4493243 122.328547 34.4493243zM128.725084 34.4493243C128.014358 34.5747466 127.972551 34.7419764 127.972551 35.2436655L127.888936 39.2153716C127.888936 39.2989865 127.847128 39.2989865 127.763514 39.2989865 127.721706 39.2989865 127.679899 39.2571791 127.638091 39.2153716L124.168074 35.285473 124.126267 38.0865709C124.126267 38.5882601 124.168074 38.7972973 124.878801 38.8809122 124.920608 38.8809122 124.920608 38.9227196 124.920608 39.0063345 124.920608 39.0899493 124.920608 39.1317568 124.878801 39.1317568 124.502534 39.1317568 124.251689 39.0899493 123.875422 39.0899493 123.540963 39.0899493 123.248311 39.1317568 122.955659 39.1317568 122.913851 39.1317568 122.913851 39.0899493 122.913851 39.0063345 122.913851 38.9227196 122.955659 38.8809122 122.955659 38.8809122 123.666385 38.7554899 123.708193 38.5464527 123.708193 38.0865709L123.875422 35.2436655C123.875422 34.7419764 123.75 34.5747466 123.039274 34.4493243 122.997466 34.4493243 122.997466 34.3657095 122.997466 34.323902 122.997466 34.2402872 122.997466 34.1984797 123.039274 34.1984797 123.290118 34.1984797 123.415541 34.2402872 123.708193 34.2402872 124.000845 34.2402872 124.126267 34.1984797 124.460726 34.1984797L127.638091 37.7521115 127.638091 35.285473C127.638091 34.7837838 127.554476 34.6165541 126.84375 34.4911318 126.801943 34.4911318 126.801943 34.4493243 126.801943 34.3657095 126.801943 34.2820946 126.84375 34.2402872 126.84375 34.2402872 127.220017 34.2402872 127.470861 34.2820946 127.847128 34.2820946 128.181588 34.2820946 128.47424 34.2402872 128.766892 34.2402872 128.808699 34.2402872 128.808699 34.2820946 128.808699 34.3657095 128.766892 34.4075169 128.766892 34.4493243 128.725084 34.4493243zM133.323902 39.1735642C132.780405 39.1317568 131.777027 39.0899493 131.191723 39.0899493 130.606419 39.0899493 129.728463 39.1317568 129.268581 39.1735642 129.226774 39.1735642 129.226774 39.0899493 129.226774 39.0481419 129.226774 38.964527 129.226774 38.9227196 129.268581 38.9227196 129.979307 38.7972973 130.021115 38.6300676 130.021115 38.1283784L130.021115 35.285473C130.021115 34.7837838 129.979307 34.6165541 129.268581 34.4911318 129.226774 34.4911318 129.226774 34.4075169 129.226774 34.3657095 129.226774 34.2820946 129.226774 34.2402872 129.268581 34.2402872 129.728463 34.2402872 129.9375 34.2820946 130.480997 34.2820946 131.024493 34.2820946 131.23353 34.2402872 131.693412 34.2402872 131.73522 34.2402872 131.73522 34.323902 131.73522 34.3657095 131.73522 34.4493243 131.693412 34.4911318 131.693412 34.4911318 130.982686 34.6165541 130.940878 34.7837838 130.940878 35.285473L130.940878 38.2538007C130.940878 38.7136824 131.23353 38.8391047 131.484375 38.8391047L131.777027 38.8391047C132.738598 38.8391047 133.114865 38.2119932 133.491132 37.3758446 133.491132 37.3340372 133.532939 37.3340372 133.574747 37.3340372 133.658361 37.3340372 133.741976 37.417652 133.741976 37.4594595 133.491132 38.0447635 133.407517 38.4628378 133.323902 39.1735642zM138.675253 39.1735642C138.215372 39.1735642 138.048142 39.0899493 137.671875 39.0899493 137.211993 39.0899493 137.002956 39.1735642 136.543074 39.1735642 136.501267 39.1735642 136.501267 39.0899493 136.501267 39.0481419 136.501267 38.964527 136.501267 38.9227196 136.543074 38.9227196 136.961149 38.8809122 137.002956 38.7136824 137.002956 38.5046453 137.002956 38.3374155 136.961149 38.1701858 136.919341 38.0865709L136.668497 37.417652 135.247044 37.417652 135.038007 37.9611486C134.996199 38.1283784 134.954392 38.2119932 134.954392 38.4210304 134.954392 38.671875 134.996199 38.8391047 135.456081 38.8809122 135.497889 38.8809122 135.497889 38.9227196 135.497889 39.0063345 135.497889 39.0899493 135.456081 39.1317568 135.456081 39.1317568 135.038007 39.1317568 134.870777 39.0481419 134.578125 39.0481419 134.243666 39.0481419 134.118243 39.1317568 133.783784 39.1317568 133.741976 39.1317568 133.741976 39.0481419 133.741976 39.0063345 133.741976 38.9227196 133.783784 38.8809122 133.825591 38.8809122 134.32728 38.7972973 134.452703 38.4628378 134.66174 37.9193412L136.208615 34.1148649C136.208615 34.0730574 136.250422 34.03125 136.334037 34.03125 136.375845 34.03125 136.459459 34.0730574 136.459459 34.1148649L137.839105 37.9193412C137.964527 38.3374155 138.131757 38.7972973 138.717061 38.8809122 138.758868 38.8809122 138.800676 38.9227196 138.800676 39.0063345 138.717061 39.0899493 138.717061 39.1735642 138.675253 39.1735642zM135.95777 35.4527027L135.330659 37.125 136.543074 37.125 135.95777 35.4527027zM144.862753 34.4493243C144.152027 34.5747466 144.11022 34.7419764 144.11022 35.2436655L144.026605 39.2153716C144.026605 39.2989865 143.984797 39.2989865 143.901182 39.2989865 143.859375 39.2989865 143.817568 39.2571791 143.77576 39.2153716L140.305743 35.285473 140.263936 38.0865709C140.263936 38.5882601 140.305743 38.7972973 141.01647 38.8809122 141.058277 38.8809122 141.058277 38.9227196 141.058277 39.0063345 141.058277 39.0899493 141.058277 39.1317568 141.01647 39.1317568 140.640203 39.1317568 140.389358 39.0899493 140.013091 39.0899493 139.678632 39.0899493 139.38598 39.1317568 139.093328 39.1317568 139.05152 39.1317568 139.009713 39.0899493 139.009713 39.0063345 139.009713 38.9227196 139.05152 38.8809122 139.093328 38.8809122 139.804054 38.7554899 139.845861 38.5464527 139.845861 38.0865709L140.013091 35.2436655C140.013091 34.7419764 139.887669 34.5747466 139.176943 34.4493243 139.135135 34.4493243 139.135135 34.3657095 139.135135 34.323902 139.135135 34.2402872 139.176943 34.1984797 139.176943 34.1984797 139.427787 34.1984797 139.553209 34.2402872 139.845861 34.2402872 140.138514 34.2402872 140.263936 34.1984797 140.598395 34.1984797L143.77576 37.7521115 143.77576 35.285473C143.77576 34.7837838 143.692145 34.6165541 142.981419 34.4911318 142.939611 34.4911318 142.939611 34.4493243 142.939611 34.3657095 142.939611 34.2820946 142.981419 34.2402872 142.981419 34.2402872 143.357686 34.2402872 143.60853 34.2820946 143.984797 34.2820946 144.319257 34.2820946 144.611909 34.2402872 144.904561 34.2402872 144.946368 34.2402872 144.946368 34.2820946 144.946368 34.3657095 144.904561 34.4075169 144.862753 34.4493243 144.862753 34.4493243zM148.123733 39.1735642C147.705659 39.1735642 147.245777 39.1317568 146.827703 39.1317568 146.409628 39.1317568 145.698902 39.1317568 145.364443 39.1735642 145.322635 39.1735642 145.322635 39.1317568 145.322635 39.0481419 145.322635 38.964527 145.322635 38.9227196 145.364443 38.9227196 146.075169 38.7972973 146.116976 38.5882601 146.116976 38.1283784L146.116976 35.285473C146.116976 34.7837838 146.075169 34.6165541 145.364443 34.4911318 145.322635 34.4911318 145.322635 34.4075169 145.322635 34.3657095 145.322635 34.2820946 145.322635 34.2402872 145.364443 34.2402872 145.698902 34.2820946 146.409628 34.2820946 146.827703 34.2820946 147.245777 34.2820946 147.705659 34.2402872 148.123733 34.2402872 149.837838 34.2402872 150.757601 35.3690878 150.757601 36.7487331 150.757601 38.0029561 149.921453 39.1735642 148.123733 39.1735642zM148.040118 34.5329392L147.413007 34.5329392C147.245777 34.5329392 147.03674 34.6165541 147.03674 34.9510135L147.03674 38.4628378C147.03674 38.7972973 147.245777 38.8809122 147.413007 38.8809122L148.040118 38.9227196C149.043497 38.9227196 149.79603 38.0029561 149.79603 36.7905405 149.79603 35.4527027 149.043497 34.4911318 148.040118 34.5329392zM153.307855 39.3407939C152.680743 39.3407939 152.471706 39.1317568 151.844595 39.1317568 151.802787 38.7136824 151.76098 38.1701858 151.719172 37.7939189 151.719172 37.7521115 151.76098 37.7103041 151.844595 37.7103041 151.886402 37.7103041 151.928209 37.7103041 151.928209 37.7939189 152.220861 38.7972973 152.555321 39.0481419 153.307855 39.0481419 153.893159 39.0481419 154.144003 38.7136824 154.144003 38.1701858 154.144003 36.9995777 151.844595 36.9995777 151.844595 35.5363176 151.844595 34.7837838 152.471706 34.0730574 153.433277 34.0730574 153.934966 34.0730574 154.060389 34.1984797 154.562078 34.1984797 154.603885 34.7001689 154.645693 35.0764358 154.6875 35.5363176 154.6875 35.578125 154.645693 35.6199324 154.562078 35.6199324 154.478463 35.6199324 154.436655 35.6199324 154.436655 35.5363176 154.227618 34.6583615 153.893159 34.4075169 153.39147 34.4075169 152.88978 34.4075169 152.638936 34.7001689 152.638936 35.2018581 152.638936 36.1634291 154.938345 36.3724662 154.938345 37.7521115 154.980152 38.5882601 154.394848 39.3407939 153.307855 39.3407939zM156.777872 39.2989865C156.443412 39.2989865 156.192568 39.0063345 156.192568 38.671875 156.192568 38.3374155 156.48522 38.0447635 156.777872 38.0447635 157.112331 38.0447635 157.363176 38.3374155 157.363176 38.671875 157.363176 39.0063345 157.112331 39.2989865 156.777872 39.2989865zM162.923564 39.0899493C162.463682 39.0899493 161.752956 39.2989865 161.167652 39.2989865 159.328125 39.2989865 158.408361 38.0029561 158.408361 36.6651182 158.408361 35.2436655 159.495355 33.9894426 161.209459 33.9894426 161.836571 33.9894426 162.33826 34.1148649 162.798142 34.1148649 162.839949 34.5329392 162.923564 34.9928209 162.965372 35.4108953 162.965372 35.4527027 162.923564 35.4527027 162.839949 35.4527027 162.798142 35.4527027 162.756334 35.4527027 162.756334 35.4108953 162.589105 34.7837838 162.003801 34.2820946 161.167652 34.2820946 160.038851 34.2820946 159.369932 35.285473 159.369932 36.6651182 159.369932 37.9611486 160.038851 38.964527 161.125845 38.964527 162.045608 38.964527 162.589105 38.5464527 162.923564 37.7521115 162.923564 37.7103041 162.965372 37.7103041 163.048986 37.7103041 163.090794 37.7103041 163.132601 37.7521115 163.132601 37.7521115 163.090794 38.1701858 162.965372 38.671875 162.923564 39.0899493zM166.519003 39.3407939C164.846706 39.3407939 163.885135 38.1701858 163.885135 36.7069257 163.885135 35.2436655 164.846706 34.03125 166.519003 34.03125 168.191301 34.03125 169.152872 35.2436655 169.152872 36.7069257 169.194679 38.1701858 168.191301 39.3407939 166.519003 39.3407939zM166.519003 34.323902C165.43201 34.323902 164.846706 35.4108953 164.846706 36.7069257 164.846706 38.0029561 165.43201 39.0063345 166.519003 39.0063345 167.605997 39.0063345 168.191301 38.0029561 168.191301 36.7069257 168.191301 35.4108953 167.605997 34.323902 166.519003 34.323902zM176.218328 39.1735642C175.758446 39.1735642 175.507601 39.0899493 175.089527 39.0899493 174.629645 39.0899493 174.462416 39.1735642 173.960726 39.1735642 173.918919 39.1735642 173.918919 39.0899493 173.918919 39.0481419 173.918919 38.964527 173.918919 38.9227196 173.960726 38.9227196 174.671453 38.7972973 174.587838 38.6300676 174.587838 38.1283784L174.462416 35.1600507 172.873733 39.2989865C172.873733 39.3407939 172.831926 39.3826014 172.748311 39.3826014 172.664696 39.3826014 172.622889 39.3407939 172.622889 39.2989865L171.159628 35.2436655 170.908784 38.1701858C170.866976 38.671875 170.908784 38.8809122 171.61951 38.964527 171.661318 38.964527 171.661318 39.0063345 171.661318 39.0899493 171.661318 39.1735642 171.61951 39.2153716 171.577703 39.2153716 171.201436 39.2153716 170.950591 39.1317568 170.616132 39.1317568 170.281672 39.1317568 170.030828 39.2153716 169.696368 39.2153716 169.654561 39.2153716 169.654561 39.1317568 169.654561 39.0899493 169.654561 39.0063345 169.696368 38.964527 169.696368 38.964527 170.407095 38.8391047 170.448902 38.671875 170.490709 38.1701858L170.783361 35.3272804C170.825169 34.8673986 170.699747 34.6165541 170.114443 34.5329392 170.072635 34.5329392 170.072635 34.4493243 170.072635 34.4075169 170.072635 34.323902 170.114443 34.2820946 170.15625 34.2820946 170.407095 34.2820946 170.699747 34.323902 170.908784 34.323902 171.159628 34.323902 171.410473 34.2820946 171.661318 34.2820946L172.999155 37.9611486 174.420608 34.2820946C174.71326 34.2820946 174.922297 34.323902 175.173142 34.323902 175.465794 34.323902 175.633024 34.2820946 175.967483 34.2820946 176.009291 34.2820946 176.009291 34.3657095 176.009291 34.4075169 176.009291 34.4911318 175.967483 34.5329392 175.967483 34.5329392 175.465794 34.6165541 175.340372 34.7419764 175.382179 35.2436655L175.507601 38.1701858C175.507601 38.671875 175.465794 38.8809122 176.17652 38.964527 176.218328 38.964527 176.218328 39.0063345 176.218328 39.0899493 176.260135 39.0899493 176.218328 39.1735642 176.218328 39.1735642zM144.528294 30.4358108C115.137669 30.4358108 91.3492399 30.5612331 91.3492399 30.7702703 91.3492399 30.9793074 115.179476 31.1047297 144.528294 31.1047297 173.918919 31.1047297 197.707348 30.9793074 197.707348 30.7702703 197.707348 30.5612331 173.877111 30.4358108 144.528294 30.4358108z"/>
    <polygon points="66.892 39.09 71.282 33.571 65.345 32.568 62.418 32.693"/>
    <path d="M20.3184122 31.1883446L19.2314189 31.3555743C20.2347973 31.3555743 21.4054054 31.5228041 22.1997466 32.1499155 23.2867399 32.9860642 24.8754223 36.2888514 27.0494088 38.4628378L33.0278716 35.6617399 20.3184122 31.1883446zM78.3471284 22.8268581L82.9877534 23.6211993 88.2136824 24.2483108C88.0464527 23.0777027 87.6701858 21.8234797 86.9594595 20.6946791 86.2905405 19.6494932 84.9945101 17.8099662 83.4894426 15.7195946"/>
    <polygon points="58.572 13.002 57.736 1.84 57.652 1.756 55.478 10.159 57.193 15.218"/>
    <polygon points="58.572 13.002 64.969 22.743 66.265 24.499 57.736 1.84"/>
    <polygon points="10.41 14.925 8.027 10.159 5.728 10.159 5.644 10.243 9.281 16.472 9.323 16.472"/>
    <polygon points="16.765 10.243 14.633 8.361 8.236 8.863 5.728 10.159 8.027 10.159"/>
    <polygon points="10.41 14.925 9.323 16.472 14.883 16.472 14.633 14.925"/>
    <polygon points="25.293 9.198 14.8 14.925 14.633 14.925 14.883 16.472 14.925 16.472 19.022 14.549"/>
    <polygon points="55.478 10.159 57.652 1.756 45.528 8.069 25.293 9.198 33.111 10.159"/>
    <path d="M25.2934966,9.19763514 L18.9805743,14.5489865 L19.0223818,14.5489865 L18.1444257,19.816723 C18.1444257,19.816723 18.7297297,26.6313345 19.1896115,31.3555743 L33.0696791,10.2010135 L25.2934966,9.19763514 Z"/>
    <polygon points="33.111 10.159 19.231 31.356 40.888 28.178 40.888 28.178 40.929 28.178 43.313 27.844"/>
    <polygon points="64.133 .042 57.652 1.756 74.835 3.804"/>
    <polygon points="47.159 45.737 55.186 46.364 52.51 40.093 47.911 41.849"/>
    <polygon points="59.367 27.258 59.367 20.778 53.054 24.959 50.629 30.603 55.478 30.603"/>
    <path d="M65.0941723 22.910473L59.4083615 20.7782939 59.4083615 33.738598C60.7043919 33.2369088 61.7077703 32.9024493 62.4603041 32.7352196L66.2647804 24.5409628 65.0105574 22.7850507 65.0941723 22.910473zM88.2554899 24.2065034L78.3889358 22.8268581 79.5177365 25.7115709 81.3154561 26.7985642 88.2972973 24.4991554C88.2554899 24.4155405 88.2554899 24.3319257 88.2554899 24.2065034z"/>
    <polygon points="75.546 15.72 78.347 22.827 83.531 15.72"/>
    <polygon points="66.265 24.499 62.418 32.693 64.258 32.359 70.905 31.063 75.546 15.72"/>
    <polygon points="79.518 25.67 75.546 15.72 70.905 31.063 79.727 25.795"/>
    <polygon points="79.518 25.67 70.905 31.063 76.675 31.356 81.274 26.799"/>
    <polygon points="81.274 33.07 81.274 26.799 76.675 31.356 78.389 36.08"/>
    <path d="M91.3910473,32.0663007 L94.066723,30.7702703 C94.066723,30.7702703 88.7153716,30.5612331 88.0882601,29.097973 C88.8407939,31.3555743 91.3910473,32.0663007 91.3910473,32.0663007 Z"/>
    <path d="M91.3910473,32.0663007 C91.3910473,32.0663007 88.7989865,31.3555743 88.0882601,29.097973 L87.9210304,32.7352196 L86.917652,34.6165541 C86.917652,34.6165541 90.3040541,36.3724662 93.6904561,37.2086149 C97.0768581,38.0447635 99.6689189,36.6651182 99.6689189,36.6651182 C99.6689189,36.6651182 93.7322635,35.6617399 91.3910473,32.0663007 Z"/>
    <polygon points="81.734 36.08 84.409 36.08 86.082 32.568 84.409 32.443 84.744 30.31"/>
    <polygon points="81.274 33.07 78.389 36.08 81.734 36.08 84.744 30.31 84.827 29.474 81.274 29.474"/>
    <path d="M88.2972973 24.4991554L81.3154561 26.7985642 81.3154561 29.4742399 84.8690878 29.4742399 88.1300676 29.097973C88.0882601 29.0561655 88.5899493 26.9657939 88.2972973 24.4991554zM10.1592061 33.4041385L19.2314189 31.3137669C19.2314189 31.3137669 18.6879223 25.4189189 18.4370777 22.9940878L10.1592061 33.4041385z"/>
    <path d="M18.1862331,19.816723 L13.2111486,22.6596284 L10.0755912,33.4459459 C10.1173986,33.4459459 10.1173986,33.4041385 10.1592061,33.4041385 L18.4788851,23.0358953 C18.269848,21.1545608 18.1862331,19.816723 18.1862331,19.816723 Z"/>
    <polygon points="33.111 10.159 43.313 27.844 55.478 10.159"/>
    <polygon points="43.313 27.844 50.629 30.603 57.193 15.218 55.478 10.159"/>
    <polygon points="43.313 27.844 19.231 31.356 33.028 35.662"/>
    <polygon points="0 42.142 1.589 45.57 7.149 45.57 4.306 40.553 .042 42.1"/>
    <path d="M0.0418074324,42.1000845 L4.34797297,40.5532095 C4.34797297,40.5532095 7.65076014,34.9092061 9.53209459,33.738598 C9.69932432,33.6549831 9.86655405,33.5295608 10.0755912,33.4459459 L13.2111486,22.6596284 L5.64400338,36.0798142 L0.0418074324,42.1000845 Z"/>
    <polygon points="5.644 36.08 13.211 22.66 .042 42.1"/>
    <path d="M27.0494088,38.4628378 C27.6347128,39.0899493 28.3036318,39.5916385 28.9725507,39.926098 C31.4809966,41.1803209 35.0346284,42.6435811 36.4142736,43.2288851 L40.9712838,41.0967061 L27.0494088,38.4628378 Z"/>
    <path d="M40.9712838,41.0967061 L36.4142736,43.2288851 C36.7905405,43.3543074 36.9995777,43.4379223 36.9995777,43.4379223 L38.2119932,46.3226351 L44.7339527,46.3226351 L40.9712838,41.0967061 Z"/>
    <polygon points="33.028 35.662 27.049 38.463 27.049 38.463 40.971 41.097"/>
    <polygon points="50.629 30.603 46.824 37.543 46.824 37.668 55.478 30.603"/>
    <path d="M55.4784628 30.6030405L55.0185811 36.0380068C55.6875 35.4527027 56.5654561 34.9092061 57.6524493 34.4493243 58.2795608 34.1566723 58.8648649 33.9476351 59.3665541 33.738598L59.3665541 27.2584459 55.4784628 30.6030405zM46.8243243 37.6684966L46.9497466 40.9294764 47.8695101 41.8492399 52.4683277 40.0933277C52.4683277 40.0933277 52.6773649 37.9611486 54.9767736 36.0380068L55.4366554 30.6030405 46.8243243 37.6684966z"/>
    <polygon points="74.166 39.717 78.389 36.08 76.675 31.356 72.87 36.707"/>
    <polygon points="57.736 1.84 66.265 24.499 75.546 15.72"/>
    <polygon points="57.652 1.756 75.546 15.72 74.835 3.804"/>
    <path d="M83.53125,15.7195946 C79.8521959,10.5772804 74.8771115,3.84628378 74.8771115,3.84628378 L75.5460304,15.7195946 L75.5460304,15.7195946 L83.53125,15.7195946 Z"/>
    <polygon points="78.389 36.08 74.166 39.717 79.936 40.637"/>
    <polygon points="81.734 36.08 78.389 36.08 79.936 40.637 85.078 37.627 85.162 37.459 84.409 36.08"/>
    <polygon points="87.921 32.693 86.082 32.568 84.409 36.08 84.409 36.08 85.162 37.459 86.918 34.575"/>
    <polygon points="60.746 38.463 59.659 37.334 55.897 41.849 57.861 43.271 59.116 42.894 60.913 38.421"/>
    <polygon points="59.116 42.894 63.087 43.898 60.746 38.463"/>
    <polygon points="63.004 38.087 60.913 38.421 60.746 38.463 63.087 43.898 66.892 39.09"/>
    <polygon points="63.004 38.087 66.892 39.09 62.418 32.693"/>
    <polygon points="62.418 32.693 71.282 33.571 70.905 31.063"/>
    <polygon points="83.657 32.401 87.921 32.693 88.088 29.056 84.827 29.474"/>
    <polygon points="58.405 11.622 59.367 20.778 66.265 24.499"/>
    <polygon points="58.572 13.337 58.447 11.706 57.193 15.218 53.054 24.959 59.367 20.778"/>
  </g>
</svg>
