<svg width="281" height="100" viewBox="0 0 281 100" xmlns="http://www.w3.org/2000/svg"><title>ED3AEE06-8A31-45DE-8F3A-B0F1487A60BC</title><g fill="none" fill-rule="evenodd"><path fill="none" d="M0 0h280v100H0z"/><path d="M183.03 33.33c-2.215 0-4.43-.002-6.646 0-.456 0-.65.15-.762.586-.047.183-.072.373-.106.561-.068.372-.055.388.334.388 1.412 0 2.824-.021 4.235-.034 3.047-.026 6.095-.007 9.142-.007.088 0 .175-.006.262 0 .195.016.304-.048.329-.26.03-.275.093-.545.144-.818.077-.415.078-.417-.343-.417h-6.588m-.887 3.968h-2.553c-1.423 0-2.845.003-4.266-.002-.21 0-.35.032-.383.277-.043.321-.12.637-.182.955-.079.408-.077.408.34.408h13c.096 0 .194.003.29-.004.384-.03.626-.228.712-.599.05-.213.084-.43.124-.646.072-.386.072-.389-.32-.389h-6.762m3.202-6.425h10.48c.46 0 .462.001.36.45-.07.297-.13.597-.217.89-.23.78-.568 1.048-1.481 1.101-.31.019-.383.148-.43.405a618.9 618.9 0 0 1-.986 5.262c-.27 1.409-1.273 2.21-2.738 2.212-4.547 0-9.095.002-13.642-.007-.312-.002-.486.082-.57.38-.06.22-.16.43-.247.643-.059.145-.015.22.148.22h.145c5.34 0 10.682.022 16.023-.014 1.805-.011 2.707 1.296 2.427 2.848-.412 2.273-.843 4.542-1.274 6.811a2.162 2.162 0 0 1-2.104 1.769c-1.306.02-2.612.008-3.918.003-.453-.002-.802-.197-1.012-.602-.213-.407-.414-.82-.63-1.225-.116-.216-.03-.26.18-.26.996.007 1.994.004 2.99.003.647 0 .816-.136.934-.766.373-1.998.737-3.999 1.117-5.996.05-.266-.026-.324-.285-.322-1.075.012-2.148.01-3.223.001-.226-.002-.346.067-.431.282-.86 2.158-1.73 4.312-2.595 6.468l-.364.904c-.388.954-1.229 1.515-2.277 1.517-.572.001-1.142-.006-1.713.003-.241.005-.309-.049-.209-.294 1.151-2.825 2.294-5.654 3.438-8.481.16-.395.163-.395-.264-.395-.57 0-1.14.007-1.711-.004-.213-.005-.333.058-.414.262a1155.75 1155.75 0 0 1-2.701 6.705c-.19.466-.324.96-.664 1.36-.457.537-1.038.822-1.742.84-.59.016-1.18.005-1.77.004-.388 0-.398-.012-.257-.36.613-1.516 1.228-3.03 1.843-4.546.533-1.31 1.07-2.62 1.604-3.929.121-.297.101-.33-.218-.33-.589-.003-1.18.008-1.77-.007-.235-.005-.343.089-.423.298-.285.74-.585 1.474-.882 2.211-.418 1.04-1.197 1.564-2.323 1.565-.6.001-1.2-.006-1.8.004-.235.003-.32-.04-.218-.29.947-2.33 1.872-4.67 2.859-6.982.18-.42.184-.42-.225-.61-1.037-.487-1.543-1.492-1.328-2.727.273-1.56.558-3.119.866-4.672.33-1.659 1.524-2.6 3.25-2.602h10.392zM163.05 41.174h3.977c.354 0 .373.019.308.357-.06.309-.113.62-.202.922-.197.673-.628 1.008-1.333 1.012-.3.001-.397.111-.447.385-.273 1.512-.573 3.019-.847 4.53-.206 1.15-1.145 1.992-2.328 2.024-.802.021-1.606.008-2.41.003-.495-.003-.878-.206-1.11-.65-.208-.398-.407-.801-.616-1.199-.095-.181-.036-.237.155-.234.562.005 1.122.003 1.684 0 .704-.002.815-.093.943-.772.238-1.246.476-2.493.711-3.74.061-.324.048-.336-.295-.337-.871-.001-1.743.006-2.614-.005-.249-.003-.356.076-.404.327a569.333 569.333 0 0 1-.977 5.002c-.094.477-.284.914-.663 1.245a1.41 1.41 0 0 1-.95.37c-.793-.002-1.587-.01-2.38.003-.273.005-.324-.083-.275-.337.4-2.09.784-4.184 1.188-6.273.053-.27-.02-.335-.28-.332-.996.01-1.994.028-2.99-.003-1.078-.033-2.014-.39-2.602-1.352-.345-.567-.445-1.195-.355-1.846.11-.816.24-1.628.785-2.302a3.17 3.17 0 0 1 2.285-1.21c1.332-.11 2.668-.027 4.003-.048.478-.007.479 0 .57-.472.062-.329.105-.66.182-.985.061-.26-.019-.33-.284-.328-2.09.008-4.18.004-6.27.003-.465 0-.47-.001-.377-.443.086-.41.136-.828.344-1.207.29-.528.734-.8 1.335-.818a34.418 34.418 0 0 1 1.596 0c.2.004.292-.057.327-.262.066-.393.114-.793.361-1.136.308-.426.708-.668 1.246-.668.638 0 1.278.006 1.916-.002.23-.004.315.059.26.3-.109.484-.19.974-.293 1.46-.042.207-.026.312.24.31 1.189-.013 2.38-.01 3.57-.002.222.001.344-.062.366-.294.018-.189.059-.376.098-.563.152-.726.731-1.2 1.483-1.208.638-.005 1.278.009 1.916-.006.246-.005.305.084.259.305-.093.448-.176.898-.263 1.349-.081.412-.081.417.334.412 1.045-.011 2.09-.028 3.132-.04.407-.004.416.004.343.402-.256 1.4-.506 2.799-.78 4.194-.243 1.252-1.397 2.159-2.74 2.166-1.481.009-2.961.011-4.443-.005-.311-.003-.422.105-.459.397-.048.387-.142.768-.215 1.153-.085.447-.085.448.365.448h3.92zm-1.98-4.46c.406 0 .813-.015 1.218.004.249.011.345-.089.38-.317.06-.386.127-.773.216-1.154.06-.26-.043-.318-.278-.316-.813.006-1.626.009-2.44-.001-.219-.003-.31.082-.345.287-.065.395-.139.79-.226 1.181-.05.227.016.321.255.318.406-.01.813-.003 1.22-.003zm-7.867 4.46c.397 0 .793-.002 1.189 0 .151 0 .259-.034.289-.208.092-.526.19-1.052.294-1.575.03-.157-.03-.208-.18-.207-.706.003-1.412-.008-2.117.008-.39.01-.603.193-.693.574-.09.372-.137.752-.222 1.123-.052.23.038.29.25.287.397-.008.794-.003 1.19-.003zM135.1 36.026c1.364 0 2.729-.001 4.093 0 .386 0 .4.02.316.392-.061.27-.123.54-.191.809-.226.89-.552 1.185-1.483 1.24-.304.019-.385.135-.434.396-.183.976-.383 1.949-.583 2.92-.304 1.482-1.268 2.261-2.796 2.262-1.509.002-3.019.005-4.527-.003-.263-.003-.373.08-.42.343a295.03 295.03 0 0 1-.834 4.415c-.198 1.004-.993 1.646-2.034 1.66-.657.008-1.315.003-1.973 0-.323-.002-.363-.05-.305-.351.348-1.868.698-3.734 1.05-5.6.087-.464.092-.462-.4-.464-.88 0-1.761.011-2.64-.002-.823-.012-1.598-.204-2.251-.72-.855-.673-1.175-1.56-.984-2.618a60.29 60.29 0 0 1 .392-1.937c.375-1.76 1.576-2.73 3.407-2.74 1.22-.01 2.438-.002 3.656-.003.414 0 .414-.001.48-.395.117-.699.117-.699-.592-.699-1.954 0-3.908.002-5.863 0-.514 0-.512 0-.419-.486.045-.233.085-.469.13-.703.156-.819.712-1.28 1.564-1.281 1.8-.004 3.6-.01 5.398.006.312.002.43-.105.462-.393.031-.302.081-.604.175-.897.245-.756.763-1.155 1.565-1.169.803-.013 1.607 0 2.41-.005.232-.002.306.076.256.311-.127.597-.233 1.199-.348 1.799-.065.344-.065.345.3.345l6.821.001c.402 0 .404.002.307.378-.07.268-.142.536-.218.802-.269.932-.754 1.291-1.753 1.292-1.819.003-3.638-.002-5.455.003-.536.001-.52-.09-.616.502-.096.59-.1.589.507.589l3.83.001zm-11.027 5.719c.386 0 .773-.005 1.158.002.185.003.278-.06.313-.251.162-.919.335-1.837.512-2.752.035-.184-.007-.265-.21-.263-.676.007-1.352-.002-2.029.007-.362.005-.573.153-.644.499-.17.84-.314 1.684-.473 2.527-.035.182.038.237.214.233.386-.007.772-.002 1.159-.002zm6.908 0c.356 0 .714.004 1.072 0 .424-.006.677-.194.76-.601.162-.802.302-1.61.46-2.414.036-.183-.03-.246-.204-.246-.878.002-1.758.002-2.636 0-.173 0-.265.067-.297.241-.165.908-.336 1.817-.509 2.725-.04.209.029.302.253.297.366-.008.734-.002 1.1-.002zm22.078 12.103c-3.6 0-7.198-.005-10.797.003-1.42.002-2.753-1.143-2.406-2.829.2-.981.334-1.977.552-2.954.791-3.558 1.344-7.162 2.064-10.734.18-.892.635-1.28 1.565-1.303.793-.02 1.586.001 2.38-.008.266-.004.304.112.262.336-.398 2.091-.79 4.183-1.182 6.274-.528 2.803-1.054 5.609-1.584 8.411-.046.241.03.329.28.327 1.219-.007 2.438-.003 3.657-.003h17.474l.29.002c.144 0 .223.054.18.21-.118.432-.168.882-.355 1.297-.289.64-.77.974-1.495.974-3.629-.005-7.257-.003-10.885-.003zm-28.986 0h-10.798c-1.549 0-2.624-1.26-2.348-2.77.472-2.572.958-5.142 1.44-7.711.359-1.923.72-3.846 1.08-5.768.018-.094.037-.188.058-.282.207-.906.656-1.273 1.607-1.288.764-.013 1.528-.005 2.293-.003.328.001.354.035.294.35l-.938 4.98c-.608 3.226-1.218 6.452-1.824 9.678-.062.325-.05.334.327.334h21.16c.453 0 .453 0 .342.448-.082.324-.134.655-.256.968-.272.706-.79 1.064-1.552 1.064h-10.885zm3.989 5.648h3.86c.357 0 .371.018.295.357a8.492 8.492 0 0 1-.15.584c-.173.59-.43.808-1.051.84-.237.011-.314.109-.353.317-.285 1.491-.574 2.98-.868 4.47-.287 1.444-1.126 2.207-2.612 2.386-1.243.15-2.491.099-3.738.096-.302 0-.413.093-.467.391-.347 1.917-.7 3.831-1.085 5.74-.221 1.101-.535 1.32-1.671 1.32-.397.002-.793.003-1.19 0-.315-.003-.334-.033-.271-.366l1.004-5.346c.564-2.992 1.134-5.983 1.688-8.976.161-.87.672-1.39 1.519-1.616a5.96 5.96 0 0 1 1.548-.197h3.542zm-1.888 1.79c-.406 0-.813-.003-1.218.001-.392.002-.554.128-.623.497-.298 1.575-.588 3.151-.89 4.726-.037.191.005.263.205.261.785-.006 1.568.005 2.351-.008.412-.008.712-.238.792-.635.308-1.534.595-3.071.897-4.606.036-.187-.033-.24-.208-.237-.435.004-.87 0-1.306 0zm-12.817 7.266h-5.283c-.434 0-.435 0-.373-.406.164-1.06.727-1.546 1.833-1.548 2.37-.008 4.741-.002 7.112-.008.132 0 .33.083.38-.099.042-.151-.148-.202-.253-.275-2.09-1.45-4.18-2.897-6.272-4.343-.724-.5-1.2-1.15-1.325-2.03-.137-.964.444-1.882 1.311-2.037.133-.025.27-.027.406-.027 3.202-.002 6.405-.002 9.608-.002.417 0 .42.008.33.398-.045.195-.083.392-.124.588-.094.434-.368.68-.81.745-.24.034-.479.061-.721.061-2.072-.003-4.142-.003-6.213.001-.131.002-.333-.082-.381.092-.04.147.137.238.252.318 1.308.904 2.619 1.803 3.927 2.704.516.356 1.021.726 1.544 1.069 1.008.66 1.406 1.551 1.142 2.732a24.224 24.224 0 0 0-.303 1.72c-.04.275-.175.354-.445.352-1.781-.01-3.562-.005-5.342-.005zm22.82 0c-.769-.022-1.697.039-2.624-.04a3.632 3.632 0 0 1-.74-.129c-.92-.275-1.417-1.018-1.324-1.963.109-1.103.379-2.178.569-3.268.113-.648.249-1.293.374-1.939.151-.772.64-1.243 1.376-1.48a5.215 5.215 0 0 1 1.601-.235c2.534-.004 5.068-.003 7.603-.001.341 0 .359.022.284.338-.041.176-.086.353-.131.528-.167.645-.39.853-1.051.91-.238.022-.332.102-.373.333-.324 1.783-.65 3.566-.997 5.345-.158.814-.797 1.546-1.77 1.572-.443.011-.889.023-1.333.028-.434.005-.87.002-1.463.002zm-.235-1.783c.417 0 .832.003 1.249-.001.421-.004.527-.083.605-.495.3-1.565.59-3.132.89-4.697.042-.22-.034-.294-.252-.292-.842.006-1.683 0-2.525.003-.382.003-.536.142-.603.517l-.27 1.464c-.196 1.052-.395 2.102-.59 3.152-.062.34-.052.35.307.35h1.19zm28.02 0c.822 0 1.644-.001 2.465.001.334.002.358.028.28.347-.057.232-.127.46-.2.688-.145.444-.476.659-.93.697-.394.033-.79.06-1.187.052-1.353-.026-2.706.044-4.06-.042a3.265 3.265 0 0 1-.906-.178c-.708-.255-1.116-.822-1.152-1.565-.04-.841.211-1.642.352-2.458.172-.996.384-1.985.555-2.982.16-.924.73-1.439 1.618-1.66.48-.12.97-.174 1.465-.174 1.836 0 3.674 0 5.512.002.362 0 .371.014.301.38a953.948 953.948 0 0 0-.62 3.29c-.176.95-.6 1.32-1.583 1.39-1.315.09-2.63.028-3.943.036-.298.003-.436.084-.477.387-.066.5-.161.998-.268 1.492-.05.238.017.303.253.3.842-.008 1.683-.003 2.525-.003zm-.826-3.71c.34 0 .678-.007 1.016.002.241.005.374-.082.414-.334.069-.433.158-.862.249-1.292.051-.238-.026-.334-.278-.33-.61.008-1.218-.002-1.829.005-.378.002-.523.116-.604.485-.088.39-.144.788-.234 1.178-.055.235.041.29.25.286.34-.004.677 0 1.016 0zm-59.254-24.8c1.141 0 2.282.003 3.423-.002.223-.001.346.036.296.305-.425 2.248-.844 4.498-1.254 6.75-.043.233-.148.29-.367.288-2.272-.005-4.544-.002-6.816-.004-.345 0-.366-.028-.304-.365.413-2.211.83-4.423 1.234-6.637.048-.263.165-.342.424-.34 1.121.012 2.243.006 3.364.006zm-6.86-8.254h3.367c.336.001.358.022.3.34-.416 2.232-.839 4.463-1.248 6.696-.045.246-.16.307-.39.306-2.263-.005-4.527-.005-6.79.001-.271.001-.352-.069-.3-.348.423-2.231.835-4.464 1.242-6.697.044-.239.163-.304.396-.301 1.14.008 2.283.003 3.424.003zm-1.563 8.254c1.123 0 2.244-.001 3.366.001.369 0 .384.021.319.377-.412 2.222-.826 4.444-1.233 6.667-.036.202-.118.297-.339.296-1.324-.008-2.65.02-3.974-.01-1.631-.038-2.931-1.63-2.646-3.214.233-1.286.49-2.566.722-3.852.046-.251.194-.266.391-.266 1.131.002 2.264.001 3.394.001zm-6.919-8.254c1.132 0 2.263-.001 3.395.001.337 0 .357.025.298.34-.411 2.214-.827 4.427-1.232 6.642-.048.262-.15.366-.435.363-1.209-.015-2.419.001-3.627-.009-1.473-.012-2.596-.913-2.886-2.3a2.428 2.428 0 0 1-.012-.94c.227-1.25.473-2.494.696-3.744.048-.269.159-.361.437-.359 1.122.014 2.244.006 3.366.006zm15.542 7.34c-1.132 0-2.264-.007-3.395.003-.273.003-.33-.09-.283-.342.413-2.194.817-4.39 1.225-6.585.077-.415.078-.416.495-.416 1.2-.001 2.4-.006 3.598 0 1.586.009 2.8 1.113 2.91 2.66.039.548-.144 1.076-.234 1.61-.155.922-.344 1.84-.504 2.76-.042.235-.15.34-.387.31-.01-.002-.02 0-.029 0h-3.396zm-1.747 9.204h3.365c.38 0 .392.012.326.365-.332 1.782-.666 3.563-.999 5.345-.084.45-.175.898-.25 1.35-.03.175-.113.242-.29.24-1.374-.004-2.747.023-4.12-.013-1.225-.032-2.328-1.1-2.534-2.342-.108-.646.095-1.25.197-1.866.154-.922.344-1.838.506-2.759.042-.244.151-.328.404-.325 1.132.01 2.263.005 3.395.005zm43.661 22.003h-4.178c-.377 0-.387-.01-.322-.367.039-.216.084-.431.144-.642.158-.555.44-.77 1.03-.771 1.508-.004 3.017 0 4.526-.005.144-.002.344.077.419-.095.064-.148-.105-.255-.193-.358a776.21 776.21 0 0 0-2.936-3.434c-.408-.474-.72-.984-.813-1.615-.137-.927.54-1.76 1.485-1.765 2.148-.011 4.295-.002 6.441-.007.226 0 .298.065.226.289-.086.262-.138.535-.22.8-.127.405-.396.631-.844.66-1.198.078-2.397.01-3.595.039-.147.004-.356-.079-.423.074-.055.123.124.24.214.348 1.123 1.335 2.242 2.676 3.38 3.999.44.51.535 1.082.442 1.711-.038.256-.117.506-.133.76-.021.316-.18.387-.472.384-1.393-.01-2.786-.005-4.178-.005zm8.513.002c-.573-.02-1.201.023-1.83-.04-.689-.07-1.066-.456-1.085-1.139-.02-.686.171-1.341.293-2.006.396-2.167.808-4.333 1.22-6.498.157-.834.435-1.067 1.293-1.087.522-.012 1.044.001 1.567-.009.233-.003.313.074.258.309-.076.324-.127.655-.185.985-.075.425-.074.427.357.427.764 0 1.528-.002 2.293 0 .351 0 .362.02.28.364-.282 1.172-.602 1.42-1.83 1.418-.407 0-.812.007-1.219-.002-.209-.005-.315.067-.354.28a581.978 581.978 0 0 1-.906 4.898c-.047.253.034.322.278.32.813-.01 1.625 0 2.438-.007.23-.002.326.05.248.295-.086.273-.134.558-.224.828-.143.427-.384.581-.837.62-.667.06-1.333.034-2.055.044zm18.68-9.058c.59 0 1.179.005 1.77-.002.216-.004.276.076.22.276-.053.193-.09.39-.138.585-.174.688-.464.917-1.188.93-.407.006-.812 0-1.219 0-.564.002-.74.134-.848.688-.267 1.368-.52 2.737-.778 4.106-.11.581-.21 1.165-.33 1.744-.106.502-.37.717-.891.726-.58.01-1.161.005-1.742.003-.404 0-.423-.02-.351-.403.234-1.248.473-2.494.707-3.74.168-.902.33-1.803.503-2.702.292-1.527 1.054-2.167 2.63-2.205.55-.013 1.103-.002 1.654-.002v-.004zm-25.517-9.036c-.405 0-.812-.002-1.217.001-.188.002-.243-.064-.17-.245.576-1.445 1.1-2.913 1.768-4.321.398-.838 1.064-1.283 2.032-1.235.337.016.676.002 1.015.002h.898c.39.001.4.012.26.36-.489 1.214-.982 2.426-1.471 3.64-.139.346-.267.694-.484 1.003-.372.528-.893.773-1.529.793-.368.012-.734.002-1.102.002zm-15.354 0c-.416 0-.831-.007-1.246.004-.217.006-.302-.06-.26-.282.26-1.376.502-2.755.78-4.129.149-.737.664-1.11 1.556-1.142.792-.028 1.585-.003 2.377-.01.227 0 .282.094.242.302-.264 1.376-.516 2.754-.785 4.13-.127.65-.724 1.112-1.418 1.126-.416.007-.831.001-1.246.001zm-13.799 0H117.3c-.183 0-.282-.054-.2-.259.549-1.365 1.064-2.743 1.658-4.092.363-.823.999-1.205 1.892-1.205.716 0 1.431.003 2.147-.002.224-.001.297.06.205.287-.556 1.364-1.092 2.734-1.655 4.094-.332.803-.964 1.187-1.842 1.179-.329-.004-.658-.002-.987-.002zm25.892-15.529c-.397 0-.793-.003-1.19.002-.211.002-.296-.074-.254-.297.214-1.123.41-2.25.632-3.372.152-.766.72-1.236 1.513-1.254.812-.018 1.623 0 2.435-.008.24-.001.296.084.252.314-.21 1.086-.394 2.177-.61 3.262-.176.888-.753 1.341-1.676 1.353-.368.004-.734 0-1.102 0zm-27.055-4.925c.415 0 .831.002 1.247-.001.199-.002.278.066.236.277-.212 1.105-.4 2.214-.627 3.316-.175.853-.785 1.323-1.668 1.332-.745.007-1.49.004-2.233.001-.33-.001-.355-.034-.297-.349.198-1.079.392-2.157.597-3.235.167-.88.733-1.336 1.642-1.342.368-.003.735 0 1.103 0z" fill="#5A6978"/></g></svg>